<svg width="133" height="135" viewBox="0 0 133 135" fill="none" xmlns="http://www.w3.org/2000/svg">
<path d="M87.8945 111.485C96.2615 121.202 109.008 119.764 116.578 112.292C123.284 105.672 121.527 95.4422 118.134 90.8365C111.061 81.2384 99.1765 84.2074 95.0222 89.0901C91.8867 92.7751 90.3608 101.986 96.6541 105.606C102.607 109.029 108.864 106.049 109.109 103.841C108.939 107.132 98.1294 113.346 90.0676 103.633" fill="#7779B8"/>
<path opacity="0.23" d="M89.0254 112.694C91.4395 115.112 94.1541 116.697 96.9714 117.553C91.4246 114.257 90.8396 107.04 90.5686 105.172C90.0627 108.023 89.512 110.592 89.0254 112.694Z" fill="#605985"/>
<path opacity="0.2" d="M109.107 103.854C104.269 104.714 101.97 100.595 102.429 95.6699C102.835 91.3171 106.007 86.3741 111.687 85.6464C105.272 82.9671 98.0691 85.5116 95.0225 89.0923C91.8873 92.7772 90.3614 101.988 96.6543 105.608C101.145 108.191 105.806 107.128 107.931 105.502C107.975 105.46 108.525 105.032 108.731 104.71C108.773 104.643 108.94 104.401 108.983 104.284C109.068 104.108 109.11 103.853 109.107 103.854Z" fill="#605985"/>
<path d="M87.8451 73.9098C81.0595 68.4564 52.2889 68.9457 44.6522 73.9003C32.9967 81.462 44.67 118.456 44.67 118.456C44.7036 118.633 47.6026 126.918 47.6026 126.918C49.2976 131.732 52.6981 132.262 54.3957 127.449C54.3957 127.449 56.7105 119.012 56.8118 118.958C60.5356 119.987 73.7394 119.283 76.0766 118.749C76.3178 118.863 78.1403 127.563 78.1403 127.563C79.8351 132.376 83.5131 131.737 85.2106 126.924L87.8522 118.466C87.8522 118.466 98.202 82.2323 87.8451 73.9098Z" fill="#7779B8"/>
<path d="M85.1501 127.137C85.1501 127.137 85.4872 126.384 85.6777 126.006C84.8764 125.689 80.757 124.543 77.6628 125.982C77.644 125.991 78.0256 127.374 78.0256 127.374C79.822 132.259 83.3508 132.022 85.1501 127.137Z" fill="#C5CDD4"/>
<path d="M54.5697 127.223C54.5697 127.223 54.9912 126.016 55.1708 125.644C54.4147 125.331 50.0075 124.622 47.0882 126.039C47.0704 126.048 47.9641 128.088 47.9641 128.088C49.6156 132.413 53.3902 132.02 54.5697 127.223Z" fill="#C5CDD4"/>
<path d="M80.0449 90.7325C80.0132 97.9756 66.3179 103.792 66.3179 103.792C66.3179 103.792 52.6736 97.866 52.7051 90.6229C52.7367 83.3796 55.5296 77.519 66.4323 77.5627C77.9258 77.6089 80.0764 83.4892 80.0449 90.7325Z" fill="#FCFDFF"/>
<path d="M66.5796 88.9922C63.6689 91.2935 56.583 95.9009 55.1113 96.6094L55.5449 97.5107C57.0483 96.7866 64.252 92.1074 67.1997 89.7764L66.5796 88.9922Z" fill="#605985"/>
<path d="M78.5333 88.4141C75.5987 90.7344 62.4805 100.166 60.3848 100.914L60.7207 101.855C63.0454 101.026 76.5733 91.2388 79.1534 89.1982L78.5333 88.4141Z" fill="#605985"/>
<path d="M66.3818 88.9922L65.7617 89.7764C68.7104 92.1079 75.9141 96.7871 77.4171 97.5107L77.8506 96.6094C76.379 95.9014 69.2935 91.2939 66.3818 88.9922Z" fill="#605985"/>
<path d="M54.6162 88.5781L54.306 88.9703V88.9703V88.9703L53.9961 89.3623C56.5347 91.3701 69.8945 101.021 72.2388 101.858L72.5748 100.917C70.4609 100.162 57.5034 90.8613 54.6162 88.5781Z" fill="#605985"/>
<path opacity="0.3" d="M90.3785 86.946C90.3699 88.9313 79.732 96.4237 66.126 96.3691C52.5199 96.3145 41.7687 89.6198 41.7773 87.6345C41.786 85.6492 52.1348 87.1685 65.7409 87.2231C79.347 87.2776 90.3873 84.9607 90.3785 86.946Z" fill="#605985"/>
<path d="M29.7776 75.3516C24.5649 80.4641 17.6544 88.2872 13.5354 100.451L13.5352 100.452C13.5534 100.438 13.5709 100.425 13.5894 100.412C27.6337 90.5809 25.7477 96.2277 33.8746 93.0312C41.7404 89.9373 39.0769 84.8103 41.7429 80.778C41.5959 80.7523 32.1743 77.3749 29.7776 75.3516Z" fill="#7779B8"/>
<path opacity="0.24" d="M30.2988 82.4062C32.7992 85.0429 33.7042 88.7473 33.369 93.2156C33.5353 93.1546 33.7 93.0951 33.8752 93.0261C37.9202 91.4351 39.179 89.3061 39.8117 87.0651C35.9923 85.7745 32.8555 84.1945 30.2988 82.4062Z" fill="#605985"/>
<path d="M26.9245 72.5C20.3751 75.3655 12.1273 81.2976 7.60938 87.652C12.1258 86.545 16.3951 86.3039 20.347 86.6063C20.347 86.6063 26.1216 78.8868 30.0474 75.5704C29.1387 74.7803 27.7419 73.4612 26.9245 72.5Z" fill="#636CA8"/>
<path opacity="0.3" d="M54.6717 107.48C52.5379 109.26 50.338 107.98 48.2039 106.24C48.2039 106.24 42.1387 100.962 40 94.6562C40.1512 96.4167 40.3619 98.1853 40.6177 99.9265C40.8508 100.236 41.0878 100.542 41.3309 100.837C44.357 104.508 47.9835 106.973 47.9835 106.973C50.5462 108.791 52.6776 109.533 54.5672 108.074C55.2935 107.513 55.5589 106.785 55.568 106.043C55.4502 106.563 55.1759 107.06 54.6717 107.48Z" fill="#605985"/>
<path d="M49.2477 95.9192C49.2477 95.9192 54.1079 102.494 54.1708 102.54C55.0121 103.145 56.7371 106.125 54.683 107.839C52.5492 109.618 50.3492 108.338 48.2151 106.598C48.2151 106.598 42.1402 101.312 40.0059 95" fill="#7979B8"/>
<path d="M48.3203 106.75C48.3203 106.75 52.5574 101.4 54.16 102.554C55.0157 103.17 56.7709 106.204 54.6819 107.947C52.512 109.758 49.1717 107.959 48.3203 106.75Z" fill="#C5CDD4"/>
<path opacity="0.3" d="M92.0728 94.9328C89.9379 101.244 83.8641 106.529 83.8641 106.529C81.73 108.27 79.53 109.549 77.3962 107.77C76.892 107.349 76.6178 106.852 76.5 106.333C76.509 107.074 76.7744 107.802 77.5007 108.363C79.3904 109.822 81.5217 109.08 84.0845 107.262C84.0845 107.262 87.7109 104.797 90.7371 101.126C91.0122 100.792 91.2824 100.448 91.5444 100.096C91.7661 98.3915 91.9477 96.658 92.0783 94.9297C92.0763 94.9308 92.0748 94.9317 92.0728 94.9328Z" fill="#605985"/>
<path d="M82.9913 95.9192C82.9913 95.9192 78.131 102.494 78.068 102.54C77.2269 103.145 75.5018 106.125 77.556 107.838C79.6897 109.618 81.8896 108.338 84.0239 106.598C84.0239 106.598 90.0987 101.312 92.2331 95" fill="#7979B8"/>
<path d="M83.9181 106.742C83.9181 106.742 79.6811 101.392 78.0784 102.546C77.2227 103.162 75.4675 106.196 77.5565 107.939C79.7264 109.75 83.0668 107.951 83.9181 106.742Z" fill="#C5CDD4"/>
<path d="M38.6473 14.462C43.0474 10.6582 57.0172 8.58555 67.2957 8.61948C79.0018 8.65818 92.0867 11.7263 100.172 15.8129C117.977 9.10032 131.391 29.8057 132.157 33.6758C132.766 36.7516 124.26 38.9066 109.81 34.6683C109.81 34.6683 113.369 49.1079 113.576 57.0823C113.851 67.6293 112.044 90.6593 66.8815 90.6593C21.7187 90.6593 19.2886 69.4602 19.268 56.3567C19.2585 50.3664 22.004 36.2488 23.2383 30.7439C16.5261 28.9934 11.2729 10.5503 14.8894 2.15629C16.7426 -2.14504 35.1691 6.35655 38.6473 14.462Z" fill="#7779B8"/>
<path opacity="0.25" d="M132.165 34.1775C131.18 35.4044 119.751 36.415 108.99 31.3543C106.644 30.2508 107.344 31.8595 109.913 35.091C109.848 34.8191 109.811 34.6662 109.811 34.6662C123.454 38.6681 131.789 36.9688 132.165 34.1775Z" fill="#605985"/>
<path opacity="0.25" d="M25.9046 28.8847C15.7248 24.5988 13.985 6.50208 14.0445 5.33325C14.0459 5.30676 14.0345 5.28705 14.0116 5.27344C12.4626 14.3959 17.2377 29.0872 23.1822 30.7226C26.2363 30.1871 27.4885 29.5515 25.9046 28.8847Z" fill="#605985"/>
<path d="M66.7381 41.8906C45.202 41.8857 32.435 49.7427 32.4316 64.4334C32.4282 79.7188 46.3281 83.7575 66.8492 83.7621C87.3698 83.7668 101.272 79.7491 101.275 64.449C101.279 48.9183 88.2742 41.8956 66.7381 41.8906Z" fill="#E1BF7F"/>
<path opacity="0.2" d="M34.3353 55.6475L34.1016 56.3339C53.4847 49.6964 86.6586 50.7093 100.05 56.6249C95.6484 47.4413 83.1381 42.2148 66.5204 42.2109C50.3924 42.2072 38.9497 47.1364 34.3353 55.6475Z" fill="#605985"/>
<path d="M34.5801 54.9373L34.5944 54.9515C52.2443 49.7872 84.3232 49.7969 99.3035 55.1373C94.9019 46.0921 83.3829 41.707 66.7653 41.7031C50.6372 41.6995 39.1945 46.5544 34.5801 54.9373Z" fill="#D1D1D1"/>
<path d="M66.8816 32.5621L57.5879 41.8516L66.8773 51.1452L76.171 41.8558L66.8816 32.5621Z" fill="white"/>
<path opacity="0.23" d="M66.877 51.1432L66.8771 51.1434L76.1708 41.8541L66.8834 32.5625L66.877 51.1432Z" fill="#9E9FC1"/>
<path opacity="0.9" d="M49.5572 57.4912C49.1618 59.2545 50.9625 59.1766 52.6036 59.1058C54.2447 59.035 56.2401 60.0394 55.7349 57.2241C55.5352 56.1122 54.2346 55.2416 52.7116 55.2031C50.505 55.203 49.7478 56.6421 49.5572 57.4912Z" fill="white"/>
<path opacity="0.9" d="M84.1447 57.2915C84.6597 59.0236 82.8579 59.0691 81.2158 59.1105C79.5736 59.152 77.6516 60.2904 77.9632 57.4472C78.0864 56.3242 79.3245 55.3668 80.8414 55.2243C82.9523 55.0111 83.8966 56.4574 84.1447 57.2915Z" fill="white"/>
<path d="M52.6584 68.9185C54.4654 68.9185 55.9302 67.4537 55.9302 65.6467C55.9302 63.8398 54.4654 62.375 52.6584 62.375C50.8515 62.375 49.3867 63.8398 49.3867 65.6467C49.3867 67.4537 50.8515 68.9185 52.6584 68.9185Z" fill="#2B366E"/>
<path d="M81.0821 68.9181C82.8889 68.9181 84.3536 67.4534 84.3536 65.6465C84.3536 63.8397 82.8889 62.375 81.0821 62.375C79.2753 62.375 77.8105 63.8397 77.8105 65.6465C77.8105 67.4534 79.2753 68.9181 81.0821 68.9181Z" fill="#2B366E"/>
<path d="M77.3096 72.3101C77.3087 76.3055 72.6388 78.6731 66.8789 78.6718C61.119 78.6705 56.4503 76.3008 56.4512 72.3054C56.4521 68.3099 61.1223 64.2018 66.8822 64.2031C72.6421 64.2044 77.3105 68.3147 77.3096 72.3101Z" fill="white"/>
<path d="M70.5444 68.6194C70.5441 69.9407 68.9031 71.0117 66.8797 71.0112C64.8565 71.0107 63.2165 69.939 63.2168 68.6177C63.2171 67.2963 64.8574 67.0229 66.8806 67.0234C68.9041 67.0239 70.5447 67.298 70.5444 68.6194Z" fill="#2B366E"/>
<path d="M71.3565 71.2062C71.0868 71.1356 70.8061 71.2916 70.7316 71.5628C70.6079 72.0149 70.0024 72.4172 69.2925 72.5186C68.9081 72.5768 67.9785 72.5953 67.389 71.7616V69.704C67.389 69.4229 67.1614 69.1953 66.8803 69.1953C66.5991 69.1953 66.3716 69.4229 66.3716 69.704V71.7617C65.7829 72.5958 64.8534 72.572 64.4691 72.5196C63.7587 72.4172 63.1526 72.0149 63.029 71.5628C62.9545 71.2906 62.6738 71.1326 62.4036 71.2062C62.1329 71.2807 61.9734 71.5609 62.0474 71.8311C62.2814 72.6835 63.1959 73.3688 64.325 73.526C65.2487 73.6546 66.1938 73.4105 66.8804 72.7319C67.7501 73.6143 68.7953 73.633 69.4366 73.526C70.5612 73.3383 71.4797 72.6835 71.7132 71.8311C71.7872 71.5598 71.6277 71.2807 71.3565 71.2062Z" fill="#2B366E"/>
</svg>
